<svg xmlns="http://www.w3.org/2000/svg" xmlns:xlink="http://www.w3.org/1999/xlink" width="360px" height="360px"> <path fill-rule="evenodd"  fill="none" d="M0.000,0.000 L360.000,0.000 L360.000,360.000 L0.000,360.000 L0.000,0.000 Z"/><path fill-rule="evenodd"  fill="rgb(255, 77, 59)" d="M208.000,355.000 L153.000,355.000 C150.239,355.000 148.000,352.761 148.000,350.000 L148.000,295.406 C148.000,292.645 150.239,290.406 153.000,290.406 L208.000,290.406 C210.761,290.406 213.000,292.645 213.000,295.406 L213.000,350.000 C213.000,352.761 210.761,355.000 208.000,355.000 ZM208.000,253.427 L153.000,253.427 C150.239,253.427 148.000,251.188 148.000,248.427 L148.000,10.000 C148.000,7.239 150.239,5.000 153.000,5.000 L208.000,5.000 C210.761,5.000 213.000,7.239 213.000,10.000 L213.000,248.427 C213.000,251.188 210.761,253.427 208.000,253.427 Z"/></svg>